<svg height="464pt" viewBox="0 0 464.00016 464" width="464pt" xmlns="http://www.w3.org/2000/svg"><g fill="#0092c7"><path d="m157.863281 384c-10.890625-20.320312-19.5-41.785156-25.671875-64h-114.816406c9.578125 23.332031 22.894531 44.949219 39.425781 64zm0 0"/><path d="m306.0625 384h101.136719c16.539062-19.050781 29.867187-40.664062 39.457031-64h-114.855469c-6.195312 22.21875-14.824219 43.679688-25.738281 64zm0 0"/><path d="m157.863281 80h-101.0625c-16.539062 19.050781-29.863281 40.664062-39.449219 64h114.839844c6.171875-22.214844 14.78125-43.679688 25.671875-64zm0 0"/><path d="m447.089844 145.152344c1.964844 4.871094 3.804687 9.816406 5.453125 14.847656h-441.085938c1.597657-5.03125 3.480469-9.96875 5.445313-14.839844-22.535156 55.699219-22.535156 117.980469 0 173.679688-1.964844-4.871094-3.804688-9.808594-5.445313-14.839844h441.085938c-1.648438 5.03125-3.488281 9.976562-5.453125 14.847656 22.546875-55.703125 22.546875-117.992187 0-173.695312zm-327.371094 128.953125c-.9375 3.441406-4.046875 5.847656-7.613281 5.894531h-.105469c-3.535156 0-6.648438-2.320312-7.664062-5.703125l-16.335938-54.457031-16.335938 54.457031c-1.015624 3.382813-4.128906 5.703125-7.664062 5.703125h-.105469c-3.570312-.046875-6.675781-2.453125-7.613281-5.894531l-24-88 15.4375-4.210938 16.648438 61.042969 16-53.234375c1.015624-3.386719 4.128906-5.703125 7.664062-5.703125s6.652344 2.316406 7.664062 5.703125l16 53.234375 16.648438-61.042969 15.441406 4.210938zm144 0c-.9375 3.441406-4.046875 5.847656-7.613281 5.894531h-.105469c-3.535156 0-6.648438-2.320312-7.664062-5.703125l-16.335938-54.457031-16.335938 54.457031c-1.015624 3.382813-4.128906 5.703125-7.664062 5.703125h-.105469c-3.570312-.046875-6.675781-2.453125-7.613281-5.894531l-24-88 15.4375-4.210938 16.648438 61.042969 16-53.234375c1.015624-3.386719 4.128906-5.703125 7.664062-5.703125s6.652344 2.316406 7.664062 5.703125l16 53.234375 16.648438-61.042969 15.441406 4.210938zm144 0c-.9375 3.441406-4.046875 5.847656-7.613281 5.894531h-.105469c-3.535156 0-6.648438-2.320312-7.664062-5.703125l-16.335938-54.457031-16.335938 54.457031c-1.015624 3.382813-4.128906 5.703125-7.664062 5.703125h-.105469c-3.570312-.046875-6.675781-2.453125-7.613281-5.894531l-24-88 15.4375-4.210938 16.648438 61.042969 16-53.234375c1.015624-3.386719 4.128906-5.703125 7.664062-5.703125s6.652344 2.316406 7.664062 5.703125l16 53.234375 16.648438-61.042969 15.441406 4.210938zm0 0"/><path d="m306.0625 80c10.914062 20.320312 19.542969 41.78125 25.738281 64h114.816407c-9.578126-23.332031-22.890626-44.949219-39.417969-64zm0 0"/><path d="m166.929688 400h-94.800782c40 38.222656 92.394532 60.820312 147.648438 63.679688-20.511719-18.648438-38.300782-40.085938-52.847656-63.679688zm0 0"/><path d="m277.816406 400h-91.71875c12.953125 19.667969 28.355469 37.605469 45.832032 53.390625 17.492187-15.78125 32.910156-33.722656 45.886718-53.390625zm0 0"/><path d="m244.054688 463.6875c55.308593-2.828125 107.753906-25.429688 147.792968-63.6875h-94.855468c-14.574219 23.605469-32.394532 45.042969-52.9375 63.6875zm0 0"/><path d="m315.335938 320h-166.679688c6.628906 22.34375 15.871094 43.824219 27.535156 64h111.535156c11.6875-20.175781 20.953126-41.65625 27.609376-64zm0 0"/><path d="m296.992188 64h94.855468c-40.039062-38.257812-92.484375-60.859375-147.792968-63.6875 20.542968 18.644531 38.363281 40.082031 52.9375 63.6875zm0 0"/><path d="m148.65625 144h166.679688c-6.65625-22.34375-15.921876-43.824219-27.609376-64h-111.535156c-11.664062 20.175781-20.90625 41.65625-27.535156 64zm0 0"/><path d="m219.777344.320312c-55.253906 2.859376-107.648438 25.457032-147.648438 63.679688h94.800782c14.546874-23.59375 32.335937-45.03125 52.847656-63.679688zm0 0"/><path d="m186.097656 64h91.71875c-12.976562-19.667969-28.394531-37.609375-45.886718-53.390625-17.476563 15.785156-32.878907 33.726563-45.832032 53.390625zm0 0"/></g><path d="m63.894531 280h.105469c3.535156 0 6.648438-2.320312 7.664062-5.703125l16.335938-54.457031 16.335938 54.457031c1.015624 3.382813 4.128906 5.703125 7.664062 5.703125h.105469c3.566406-.046875 6.675781-2.453125 7.613281-5.894531l24-88-15.4375-4.210938-16.648438 61.042969-16-53.234375c-1.015624-3.386719-4.128906-5.703125-7.664062-5.703125s-6.652344 2.316406-7.664062 5.703125l-16 53.234375-16.648438-61.042969-15.441406 4.210938 24 88c.945312 3.464843 4.085937 5.878906 7.679687 5.894531zm0 0"/><path d="m207.894531 280h.105469c3.535156 0 6.648438-2.320312 7.664062-5.703125l16.335938-54.457031 16.335938 54.457031c1.015624 3.382813 4.128906 5.703125 7.664062 5.703125h.105469c3.566406-.046875 6.675781-2.453125 7.613281-5.894531l24-88-15.4375-4.210938-16.648438 61.042969-16-53.234375c-1.015624-3.386719-4.128906-5.703125-7.664062-5.703125s-6.652344 2.316406-7.664062 5.703125l-16 53.234375-16.648438-61.042969-15.441406 4.210938 24 88c.945312 3.464843 4.085937 5.878906 7.679687 5.894531zm0 0"/><path d="m351.894531 280h.105469c3.535156 0 6.648438-2.320312 7.664062-5.703125l16.335938-54.457031 16.335938 54.457031c1.015624 3.382813 4.128906 5.703125 7.664062 5.703125h.105469c3.566406-.046875 6.675781-2.453125 7.613281-5.894531l24-88-15.4375-4.210938-16.648438 61.042969-16-53.234375c-1.015624-3.386719-4.128906-5.703125-7.664062-5.703125s-6.652344 2.316406-7.664062 5.703125l-16 53.234375-16.648438-61.042969-15.441406 4.210938 24 88c.945312 3.464843 4.085937 5.878906 7.679687 5.894531zm0 0"/><path d="m407.199219 384h-101.136719c10.914062-20.320312 19.542969-41.78125 25.738281-64h114.863281c2.132813-5.242188 4.09375-10.574219 5.878907-16h-441.085938c1.765625 5.425781 3.722657 10.757812 5.871094 16h114.863281c6.171875 22.214844 14.78125 43.679688 25.671875 64h-101.0625c4.84375 5.578125 9.933594 10.910156 15.277344 16h94.851563c14.546874 23.59375 32.335937 45.03125 52.847656 63.679688 4.046875.214843 8.121094.320312 12.222656.320312s8.121094-.105469 12.054688-.3125c20.542968-18.644531 38.363281-40.082031 52.9375-63.6875h94.878906c5.335937-5.089844 10.429687-10.421875 15.289062-16zm-175.199219 69.390625c-17.5-15.777344-32.925781-33.71875-45.902344-53.390625h91.71875c-12.976562 19.667969-28.394531 37.609375-45.886718 53.390625zm55.726562-69.390625h-111.535156c-11.664062-20.175781-20.90625-41.65625-27.535156-64h166.679688c-6.65625 22.34375-15.921876 43.824219-27.609376 64zm0 0"/><path d="m132.191406 144h-114.863281c-2.132813 5.242188-4.089844 10.574219-5.871094 16h441.085938c-1.773438-5.425781-3.734375-10.757812-5.878907-16h-114.863281c-6.195312-22.21875-14.824219-43.679688-25.738281-64h101.136719c-4.84375-5.574219-9.9375-10.90625-15.289063-16h-94.917968c-14.574219-23.605469-32.394532-45.042969-52.9375-63.6875-3.988282-.207031-8.007813-.3125-12.054688-.3125s-8.121094.105469-12.222656.320312c-20.511719 18.648438-38.300782 40.085938-52.847656 63.679688h-94.824219c-5.335938 5.089844-10.429688 10.421875-15.28125 16h101.039062c-10.890625 20.320312-19.5 41.785156-25.671875 64zm99.738282-133.390625c17.492187 15.78125 32.910156 33.722656 45.886718 53.390625h-91.71875c12.953125-19.664062 28.355469-37.605469 45.832032-53.390625zm-55.738282 69.390625h111.535156c11.6875 20.175781 20.953126 41.65625 27.609376 64h-166.679688c6.628906-22.34375 15.871094-43.824219 27.535156-64zm0 0"/></svg>