<?xml version="1.0" encoding="iso-8859-1"?>
<!-- Generator: Adobe Illustrator 19.0.0, SVG Export Plug-In . SVG Version: 6.00 Build 0)  -->
<svg version="1.1" id="Layer_1" xmlns="http://www.w3.org/2000/svg" xmlns:xlink="http://www.w3.org/1999/xlink" x="0px" y="0px"
	 viewBox="0 0 512 512" style="enable-background:new 0 0 512 512;" xml:space="preserve">
<path style="fill:#FF6600;" d="M397.913,75.13v33.391c0,4.61-3.738,8.348-8.348,8.348c-4.61,0-8.348-3.738-8.348-8.348V75.13
	c0-32.221-26.213-58.435-58.435-58.435s-58.435,26.213-58.435,58.435v33.391c0,4.61-3.738,8.348-8.348,8.348
	s-8.348-3.738-8.348-8.348V75.13c0-41.427,33.703-75.13,75.13-75.13S397.913,33.703,397.913,75.13z"/>
<path style="fill:#D9B166;" d="M512,111.304V500.87c0,6.147-4.983,11.13-11.13,11.13H11.13C4.983,512,0,507.017,0,500.87V111.304
	c0-6.147,4.983-11.13,11.13-11.13H500.87C507.017,100.174,512,105.157,512,111.304z"/>
<path style="fill:#BC8E50;" d="M512,111.304V500.87c0,6.147-4.983,11.13-11.13,11.13h-44.522V100.174h44.522
	C507.017,100.174,512,105.157,512,111.304z"/>
<path style="fill:#4C3623;" d="M512,247.652v16.696H264.348V512h-16.696V264.348H0v-16.696h247.652V100.174h16.696v147.478H512z
	 M186.435,411.826v44.522c0,4.61-3.738,8.348-8.348,8.348h-44.522c-4.61,0-8.348-3.738-8.348-8.348v-44.522
	c0-4.61,3.738-8.348,8.348-8.348h44.522C182.697,403.478,186.435,407.216,186.435,411.826z M169.739,420.174h-27.826V448h27.826
	V420.174z M108.522,411.826v44.522c0,4.61-3.738,8.348-8.348,8.348H55.652c-4.61,0-8.348-3.738-8.348-8.348v-44.522
	c0-4.61,3.738-8.348,8.348-8.348h44.522C104.784,403.478,108.522,407.216,108.522,411.826z M91.826,420.174H64V448h27.826V420.174z"
	/>
<path style="fill:#FFB933;" d="M456.348,195.174v172.13c0,6.147-4.983,11.13-11.13,11.13H333.913c-6.147,0-11.13-4.983-11.13-11.13
	v-172.13c0-3.722,1.86-7.197,4.956-9.261l55.652-37.101c3.739-2.492,8.609-2.492,12.348,0l55.652,37.101
	C454.488,187.977,456.348,191.452,456.348,195.174z"/>
<path style="fill:#FFD34E;" d="M422.957,378.435h-89.043c-6.147,0-11.13-4.983-11.13-11.13v-172.13c0-3.722,1.86-7.197,4.956-9.261
	l55.652-37.101c3.739-2.492,8.609-2.492,12.348,0l27.217,18.144V378.435z"/>
<path style="fill:#FFB933;" d="M409.043,200.348c0,4.61-3.738,8.348-8.348,8.348h-22.261c-4.61,0-8.348-3.738-8.348-8.348
	c0-4.61,3.738-8.348,8.348-8.348h22.261C405.306,192,409.043,195.738,409.043,200.348z"/>
<path style="fill:#FF6600;" d="M420.174,311.652c0,4.61-3.738,8.348-8.348,8.348h-44.522c-4.61,0-8.348-3.738-8.348-8.348
	s3.738-8.348,8.348-8.348h44.522C416.436,303.304,420.174,307.042,420.174,311.652z M367.304,286.609h44.522
	c4.61,0,8.348-3.738,8.348-8.348s-3.738-8.348-8.348-8.348h-44.522c-4.61,0-8.348,3.738-8.348,8.348
	S362.694,286.609,367.304,286.609z M397.913,100.174c0-4.61-3.738-8.348-8.348-8.348c-4.61,0-8.348,3.738-8.348,8.348v108.522
	h16.696V100.174z"/>
<g>
</g>
<g>
</g>
<g>
</g>
<g>
</g>
<g>
</g>
<g>
</g>
<g>
</g>
<g>
</g>
<g>
</g>
<g>
</g>
<g>
</g>
<g>
</g>
<g>
</g>
<g>
</g>
<g>
</g>
</svg>
