<?xml version="1.0"?>
<svg xmlns="http://www.w3.org/2000/svg" xmlns:xlink="http://www.w3.org/1999/xlink" version="1.1" id="Capa_1" x="0px" y="0px" viewBox="0 0 409.6 409.6" style="enable-background:new 0 0 409.6 409.6;" xml:space="preserve" width="512px" height="512px" class=""><g><g>
	<g>
		<path d="M273.065,0H34.135C15.365,0,0,15.35,0,34.135v341.33c0,18.77,15.365,34.135,34.135,34.135H204.8V170.665    c0-37.652,30.612-68.265,68.265-68.265H307.2V34.135C307.2,15.35,291.835,0,273.065,0z M153.6,375.465h-34.135    c-9.431,0-17.065-7.629-17.065-17.065s7.634-17.065,17.065-17.065H153.6c9.436,0,17.065,7.629,17.065,17.065    S163.036,375.465,153.6,375.465z" data-original="#000000" class="active-path" data-old_color="#000000" fill="#FFFFFF"/>
	</g>
</g><g>
	<g>
		<path d="M375.465,136.535h-102.4c-18.765,0-34.13,15.365-34.13,34.13v204.8c0,18.77,15.365,34.135,34.13,34.135h102.4    c18.77,0,34.135-15.365,34.135-34.135v-204.8C409.6,151.9,394.235,136.535,375.465,136.535z M324.265,375.465    c-9.431,0-17.065-7.629-17.065-17.065s7.634-17.065,17.065-17.065c9.436,0,17.07,7.629,17.07,17.065    S333.701,375.465,324.265,375.465z" data-original="#000000" class="active-path" data-old_color="#000000" fill="#FFFFFF"/>
	</g>
</g></g> </svg>
