<?xml version="1.0"?>
<svg xmlns="http://www.w3.org/2000/svg" height="512px" viewBox="0 0 56 56" width="512px" class=""><g><g id="015---Scalability"><path id="Path" d="m47.07 5.227 3.653 3.758 1.307-4.922c.0063127-.01652115.0010263-.03522684-.013-.046z" data-original="#000000" class="active-path" data-old_color="#000000" fill="#FFFFFF"/><path id="Shape" d="m55 0h-42c-.5522847 0-1 .44771525-1 1v42c0 .5522847.4477153 1 1 1h42c.5522847 0 1-.4477153 1-1v-42c0-.55228475-.4477153-1-1-1zm-1.03 4.547-1.225 4.9c-.1754171.7196917-.729452 1.2863794-1.445 1.478-.1812771.0509925-.3686875.0769003-.557.077-.5402403.0001342-1.0580684-.2159276-1.438-.6l-1.137-1.136-26.9 26.888 1.132 1.121c.5220471.5222017.7229227 1.2848064.5258722 1.9964236-.1970505.7116171-.7615761 1.2622783-1.4778722 1.4415764l-4.9 1.225c-.1635829.0407306-.3314263.0618788-.5.063-.6300194-.0030387-1.2237229-.2953261-1.6103327-.7927862-.3866098-.49746-.5232688-1.1449475-.3706673-1.7562138l1.225-4.9c.1784201-.7166345.7286788-1.2818092 1.4402861-1.4793284.7116072-.1975192 1.4744482.0031816 1.9967139.5253284l1.136 1.136 26.9-26.887-1.132-1.122c-.5220471-.52220172-.7229227-1.28480645-.5258722-1.9964236s.7615761-1.26227833 1.4778722-1.4415764l4.9-1.224c.6983004-.1757962 1.4376109.02824626 1.946893.53732341s.7136221 1.24830546.538107 1.94667659z" data-original="#000000" class="active-path" data-old_color="#000000" fill="#FFFFFF"/><path id="Path" d="m1 30c-.55228475 0-1 .4477153-1 1v24c0 .5522847.44771525 1 1 1h24c.5522847 0 1-.4477153 1-1v-9h-13c-1.6568542 0-3-1.3431458-3-3v-13z" data-original="#000000" class="active-path" data-old_color="#000000" fill="#FFFFFF"/><path id="Path" d="m16 39.938c-.006465.0167284-.0006882.0357095.014.046l4.946-1.211-3.651-3.758z" data-original="#000000" class="active-path" data-old_color="#000000" fill="#FFFFFF"/></g></g> </svg>
